<svg width="275" height="139" viewBox="0 0 275 139" fill="none" xmlns="http://www.w3.org/2000/svg">
<path d="M24.1383 70L0.738281 3.29999H25.8383L33.1383 34.9C33.8716 38.3 34.2383 41.0333 34.2383 43.1H34.8383C35.0383 39.3667 35.6049 35.6333 36.5383 31.9L43.8383 3.29999H62.4383L70.1383 33.7C70.805 36.3 71.2716 39.4333 71.5383 43.1H72.0383C72.105 40.0333 72.605 36.4667 73.5383 32.4L80.4383 3.29999H105.638L82.1383 70H61.0383L54.7383 42.8C54.0716 39.7333 53.6383 36.7 53.4383 33.7H52.6383C52.4383 37.7667 52.105 40.8 51.6383 42.8L44.7383 70H24.1383Z" fill="#FD1307"/>
<path d="M173.321 35.6C173.321 45.4 170.221 53.4667 164.021 59.8C157.021 66.9333 147.788 70.5 136.321 70.5C124.854 70.5 115.621 66.9333 108.621 59.8C102.421 53.4667 99.3211 45.4 99.3211 35.6C99.3211 25.8667 102.421 17.8333 108.621 11.5C115.621 4.36666 124.854 0.799995 136.321 0.799995C147.788 0.799995 157.021 4.36666 164.021 11.5C170.221 17.8333 173.321 25.8667 173.321 35.6ZM136.321 22.3C132.654 22.3 129.754 23.4333 127.621 25.7C125.088 28.3667 123.821 31.7 123.821 35.7C123.821 39.7667 125.088 43.0667 127.621 45.6C129.888 47.8667 132.788 49 136.321 49C139.854 49 142.754 47.8667 145.021 45.6C147.554 43.0667 148.821 39.7667 148.821 35.7C148.821 31.4333 147.554 28.1 145.021 25.7C142.754 23.4333 139.854 22.3 136.321 22.3Z" fill="#FD1307"/>
<path d="M220.366 70H175.766V3.29999H199.966V48.5H220.366V70Z" fill="#FD1307"/>
<path d="M246.701 70H222.501V3.29999H267.001V22.3H246.701V29.1H264.501V46.7H246.701V70Z" fill="#FD1307"/>
<path d="M90.1359 139H66.5359V72.3H96.6359C100.903 72.3 104.669 72.7667 107.936 73.7C111.269 74.6333 114.303 76.4667 117.036 79.2C121.236 83.4 123.336 88.8667 123.336 95.6C123.336 100.533 122.103 104.5 119.636 107.5C117.436 110.233 114.369 112 110.436 112.8V113.4C111.969 114.2 113.136 115.233 113.936 116.5L128.936 139H101.036L91.4359 119.5L91.0359 118.8C90.8359 118.333 90.6693 117.867 90.5359 117.4L90.1359 117.6V139ZM90.1359 90.6V102H92.9359C95.2026 102 96.9026 101.5 98.0359 100.5C99.1693 99.5 99.7359 98.1333 99.7359 96.4C99.7359 94.6667 99.3026 93.3333 98.4359 92.4C97.3693 91.2 96.0026 90.6 94.3359 90.6H90.1359Z" fill="#FD1307"/>
<path d="M163.73 130.7H145.33L143.53 139H117.93L141.03 72.3H167.83L191.63 139H165.93L163.73 130.7ZM156.43 102.1C155.896 99.8333 155.463 97.3333 155.13 94.6H154.23C154.163 97 153.796 99.5 153.13 102.1L149.83 114.9H159.53L156.43 102.1Z" fill="#FD1307"/>
<path d="M208.16 139H184.66L195.46 72.3H220.36L228.16 99.6C228.893 102.067 229.393 104.633 229.66 107.3H230.26C230.327 104.9 230.76 102.333 231.56 99.6L239.36 72.3H264.06L274.96 139H251.66L248.66 109.1C248.393 106.033 248.26 103.833 248.26 102.5H247.86C247.46 104.633 247.027 106.5 246.56 108.1L236.66 139H222.46L213.56 109.8C212.76 107.067 212.327 104.633 212.26 102.5H211.56C211.56 105.1 211.527 106.833 211.46 107.7L208.16 139Z" fill="#FD1307"/>
</svg>
